<?xml version="1.0" standalone="no"?>
<!DOCTYPE svg PUBLIC "-//W3C//DTD SVG 20010904//EN"
 "http://www.w3.org/TR/2001/REC-SVG-20010904/DTD/svg10.dtd">
<svg version="1.0" xmlns="http://www.w3.org/2000/svg"
 width="512.000000pt" height="512.000000pt" viewBox="0 0 512.000000 512.000000"
 preserveAspectRatio="xMidYMid meet">

<g transform="translate(0.000000,512.000000) scale(0.100000,-0.100000)"
fill="#000000" stroke="none">
<path d="M2300 4633 c-194 -21 -473 -103 -637 -187 -26 -13 -86 -64 -133 -111
l-85 -87 38 6 c20 4 37 4 37 0 0 -4 -16 -24 -35 -45 -36 -40 -80 -117 -72
-126 3 -2 17 3 31 13 15 9 29 15 31 12 3 -3 -15 -36 -40 -74 -99 -150 -131
-285 -121 -511 5 -119 3 -160 -7 -186 -8 -17 -53 -78 -100 -134 -82 -97 -239
-312 -306 -417 -22 -35 -31 -62 -31 -90 0 -66 28 -100 117 -142 131 -62 138
-78 69 -155 -48 -53 -62 -91 -51 -139 9 -40 42 -80 67 -80 17 0 19 -4 14 -27
-4 -16 -10 -54 -13 -85 l-5 -57 51 -47 c58 -53 60 -64 35 -171 -24 -104 -21
-200 9 -266 43 -94 101 -120 304 -137 270 -22 305 -64 374 -455 11 -60 23
-170 26 -243 l6 -132 36 -10 c197 -53 398 -74 644 -67 216 5 341 25 517 83
118 38 249 101 264 125 7 13 -1 38 -32 100 -58 115 -75 201 -75 379 1 178 20
290 58 328 14 14 34 45 45 69 32 73 74 117 249 263 184 154 291 266 320 333
11 24 35 65 55 91 19 26 40 64 46 85 5 20 33 75 61 122 29 46 60 98 70 114 10
17 34 77 53 135 127 386 73 788 -157 1169 -44 73 -54 97 -46 107 9 11 7 14
-12 14 -17 1 -35 15 -59 47 -65 87 -194 208 -290 272 -125 84 -311 176 -434
216 -169 54 -145 62 -220 -70 l-66 -114 0 -444 0 -444 60 -22 c33 -12 60 -25
60 -29 0 -4 -31 -38 -69 -76 l-70 -69 -57 11 c-75 15 -175 15 -244 -1 l-55
-12 -72 81 -71 81 49 17 49 18 0 589 0 589 -72 -2 c-40 0 -89 -3 -108 -5z
m-66 -1596 c-121 -175 -123 -432 -5 -614 54 -84 133 -156 211 -195 l69 -33 0
-104 1 -103 -27 6 c-16 4 -71 28 -123 53 -82 40 -108 60 -190 142 -106 107
-164 202 -199 328 -64 233 -17 497 122 679 l32 43 71 -77 71 -77 -33 -48z
m1146 31 c59 -113 82 -209 82 -348 0 -139 -29 -253 -95 -369 -95 -168 -275
-311 -449 -359 l-38 -10 0 103 0 103 34 12 c47 15 145 80 191 125 53 54 110
145 135 218 30 87 37 224 16 307 -19 77 -77 198 -106 225 l-21 19 68 68 68 69
38 -43 c20 -24 55 -78 77 -120z"/>
</g>
</svg>
